<?xml version="1.0" standalone="no"?>
<!DOCTYPE svg PUBLIC "-//W3C//DTD SVG 20010904//EN"
 "http://www.w3.org/TR/2001/REC-SVG-20010904/DTD/svg10.dtd">
<svg version="1.0" xmlns="http://www.w3.org/2000/svg"
 width="676.000000pt" height="380.000000pt" viewBox="0 0 676.000000 380.000000"
 preserveAspectRatio="xMidYMid meet">
<metadata>
Created by potrace 1.15, written by Peter Selinger 2001-2017
</metadata>
<g transform="translate(0.000000,380.000000) scale(0.100000,-0.100000)"
fill="#000000" stroke="none">
<path d="M3220 3639 c-69 -5 -204 -13 -300 -19 -96 -6 -247 -18 -335 -25 -88
-8 -214 -17 -279 -20 -66 -3 -138 -10 -160 -14 -23 -5 -72 -12 -111 -15 -100
-9 -210 -52 -247 -96 -32 -38 -195 -327 -284 -502 -53 -105 -55 -108 -88 -108
-98 0 -398 -22 -441 -32 -27 -7 -56 -11 -64 -9 -7 1 -10 -2 -7 -7 7 -12 -82
-4 -112 10 -19 10 -26 8 -50 -14 -15 -15 -71 -47 -125 -72 -54 -26 -120 -62
-146 -81 -86 -62 -157 -193 -140 -257 4 -15 6 -28 4 -30 -2 -2 28 -2 66 -1
l69 2 -5 -42 -5 -42 17 35 c12 23 28 36 48 41 17 4 271 10 565 14 294 4 595 8
668 9 125 1 134 0 145 -19 9 -14 12 -125 12 -381 0 -348 -1 -363 -20 -385 -12
-13 -14 -19 -5 -14 9 5 7 -1 -5 -14 -11 -13 -31 -29 -45 -36 -29 -15 -246 -29
-695 -45 -159 -6 -324 -13 -365 -15 -41 -2 -140 -7 -220 -10 -80 -4 -155 -8
-167 -11 -21 -4 -86 -93 -128 -173 -20 -39 -6 -82 57 -177 27 -40 59 -109 78
-164 48 -143 62 -161 138 -181 39 -11 49 -22 43 -53 -7 -33 3 -425 12 -541
l12 -140 367 -3 366 -2 8 32 c4 18 8 87 9 153 4 283 4 293 19 298 8 3 129 9
268 12 139 3 278 10 308 15 30 5 165 14 300 20 135 5 277 12 315 15 39 2 233
7 432 11 l362 6 36 -22 c35 -22 40 -22 139 -11 57 6 294 14 527 16 233 3 467
8 519 11 52 3 124 7 160 9 147 9 512 26 606 28 l100 3 2 -161 c3 -204 9 -258
36 -297 25 -37 54 -47 127 -42 30 2 117 6 194 9 249 8 381 17 395 25 11 7 14
63 16 266 2 154 -1 263 -7 270 -6 7 -3 19 10 35 10 13 29 49 42 79 13 30 29
61 37 69 28 29 44 61 57 116 9 39 9 55 2 52 -7 -2 -14 -17 -18 -33 -8 -38 -37
-94 -49 -94 -6 0 -28 -13 -51 -29 -22 -17 -64 -34 -92 -40 -29 -5 -203 -12
-387 -15 -184 -3 -504 -8 -710 -11 -206 -3 -436 -8 -510 -11 -142 -5 -228 -7
-685 -19 -290 -8 -335 -4 -377 33 -15 13 -60 14 -330 8 -172 -4 -356 -9 -408
-11 -181 -9 -376 -15 -615 -20 -132 -3 -458 -12 -725 -21 -525 -17 -740 -18
-754 -3 -6 5 -30 9 -55 9 -29 0 -61 9 -85 23 -37 20 -43 30 -76 127 -40 117
-51 140 -87 188 -22 29 -24 37 -14 59 8 18 16 23 29 18 40 -16 82 -17 104 -3
15 10 54 15 113 17 49 1 133 8 185 16 93 14 478 14 500 0 9 -6 173 5 167 11
-2 2 -73 6 -158 8 -85 3 -212 7 -284 10 -71 3 -168 0 -215 -6 -47 -6 -137 -12
-201 -13 -65 -1 -125 -7 -137 -14 -17 -9 -31 -9 -62 0 -47 14 -70 1 -64 -34 3
-16 0 -14 -10 8 -24 49 -19 76 33 156 l49 76 63 7 c73 7 220 13 464 21 324 11
927 42 955 50 21 6 486 25 720 30 107 2 292 9 410 14 349 17 349 17 403 -7 48
-21 49 -21 586 -13 297 5 543 11 548 14 13 8 705 19 1175 19 229 0 429 3 444
7 21 5 36 23 62 75 38 77 35 41 47 526 8 339 -10 427 -107 527 -58 59 -113 67
-373 56 -110 -5 -208 -13 -217 -17 -16 -7 -18 -2 -20 35 l-1 44 -4 -39 -4 -39
-278 7 c-378 10 -383 9 -490 -72 -47 -36 -103 -76 -124 -89 l-38 -24 -475 -3
c-260 -1 -476 -5 -480 -8 -13 -14 96 -17 520 -16 l450 1 50 36 c28 20 82 59
119 88 38 29 83 55 100 58 18 3 169 5 337 3 l305 -3 0 -35 0 -35 -90 -1 c-49
-1 -180 -5 -290 -9 -110 -4 -217 -8 -237 -9 -27 -1 -47 -10 -70 -32 -18 -17
-56 -49 -85 -71 -29 -22 -49 -44 -45 -48 4 -5 -1 -5 -12 -1 -10 3 -25 1 -34
-6 -11 -10 -63 -12 -204 -11 -104 2 -187 -1 -184 -5 2 -4 -219 -7 -492 -7
l-497 0 0 40 0 40 160 3 c147 2 203 12 163 27 -9 4 -204 2 -435 -4 -230 -6
-573 -13 -763 -16 -190 -3 -457 -7 -595 -10 -394 -6 -720 -6 -738 1 -10 3 -95
1 -190 -6 -249 -18 -261 -18 -387 -20 -77 -2 -115 1 -118 9 -2 6 23 38 56 71
45 44 85 72 159 108 54 26 118 62 141 80 42 29 45 30 68 16 27 -18 78 -15 184
10 75 17 334 39 430 35 36 -1 88 -2 115 -1 28 1 271 1 540 1 417 0 668 6 1129
25 62 2 89 -1 123 -16 42 -18 73 -19 671 -19 345 1 742 6 882 12 155 7 327 9
440 4 202 -9 635 -8 742 1 64 6 66 5 61 -15 -3 -12 -1 -21 6 -21 6 0 11 11 11
24 0 56 39 26 73 -56 30 -71 97 -324 104 -393 9 -78 10 -350 3 -520 -4 -104
-3 -113 24 -175 50 -116 58 -144 48 -161 -8 -12 -4 -20 16 -35 83 -61 118
-108 108 -142 -9 -27 -65 -56 -121 -63 l-50 -6 53 -2 c28 0 52 -5 52 -9 0 -22
-64 -93 -99 -111 -66 -34 -294 -50 -698 -50 -338 1 -393 -2 -393 -21 0 -15
975 -1 1067 15 36 6 142 109 156 151 5 13 12 24 17 24 16 0 32 61 27 100 -4
32 -16 51 -54 88 -48 46 -49 48 -40 85 8 33 4 51 -29 135 l-39 97 3 275 c3
253 2 282 -18 360 -44 178 -53 210 -59 210 -3 0 -7 11 -7 25 -2 31 -67 168
-99 211 -24 31 -25 32 -62 18 -28 -10 -107 -13 -303 -13 -332 -1 -392 4 -407
33 -6 11 -43 82 -83 156 -40 74 -113 216 -163 315 -49 99 -97 188 -106 199
-43 49 -77 56 -416 76 -104 6 -230 15 -280 19 -114 11 -978 11 -1145 0z m1120
-34 c184 -8 402 -20 484 -27 207 -17 206 -16 315 -229 94 -183 251 -493 251
-496 0 -2 -7 -3 -15 -3 -9 0 -63 98 -149 273 -74 149 -141 281 -150 292 -9 11
-26 36 -39 55 l-23 35 -114 11 c-147 15 -275 18 -750 19 -422 0 -999 -11
-1265 -25 -643 -33 -791 -42 -875 -56 -106 -18 -160 -36 -160 -56 0 -7 -9 -19
-20 -26 -22 -13 -105 -139 -154 -232 -16 -30 -53 -93 -82 -140 -28 -47 -61
-104 -73 -127 -21 -43 -41 -56 -41 -28 0 13 89 183 110 210 4 6 47 82 95 170
87 161 134 225 166 225 10 0 20 4 24 10 3 5 13 6 22 3 10 -4 14 -2 10 4 -16
26 169 58 428 73 83 5 168 12 190 14 74 10 299 25 455 31 85 3 178 8 205 12
45 5 432 17 710 21 61 1 261 -5 445 -13z m285 -110 c105 -3 224 -10 265 -15
41 -5 84 -9 96 -10 30 0 91 -103 227 -380 64 -129 115 -235 114 -236 -1 -1
-92 -4 -202 -8 -110 -3 -220 -8 -245 -11 -25 -3 -367 -7 -760 -9 -719 -4 -776
-2 -827 31 -15 10 -38 13 -75 9 -119 -14 -610 -26 -989 -25 -222 1 -417 1
-434 1 -16 0 -67 -3 -112 -7 -95 -9 -113 -1 -113 49 0 23 20 63 68 137 71 108
121 193 145 244 8 17 39 53 70 81 91 83 113 87 802 118 182 9 382 18 446 22
64 3 349 7 633 9 284 1 519 4 521 6 4 5 106 3 370 -6z m1520 -857 c88 -98 98
-168 86 -598 -5 -173 -12 -328 -14 -343 -7 -43 -23 -54 -37 -26 -7 13 -22 35
-34 48 -11 13 -16 21 -10 18 30 -17 50 155 53 436 2 312 0 327 -75 394 l-59
53 -255 2 -255 3 -3 23 c-8 52 0 53 286 50 l265 -3 52 -57z m-68 -74 c30 -19
53 -38 50 -41 -3 -3 -22 5 -43 17 l-36 23 -574 -2 c-489 -1 -578 -4 -609 -17
-46 -19 -54 -13 -20 14 20 16 47 22 123 27 53 3 106 7 117 9 11 2 226 4 478 5
l458 1 56 -36z m-2809 -100 l3 -41 -453 -7 c-249 -3 -568 -9 -708 -12 -140 -3
-356 -7 -480 -9 -124 -1 -275 -8 -335 -15 -61 -7 -142 -9 -180 -5 -127 11
-315 16 -315 8 0 -4 -64 -7 -143 -6 -78 2 -181 3 -229 3 -79 0 -88 2 -88 18 0
10 6 26 13 37 15 20 1 18 343 30 106 3 220 10 255 15 35 5 82 9 104 8 l40 -1
-40 -7 c-22 -4 169 -6 425 -3 747 7 1439 19 1445 25 3 3 81 5 173 4 l167 -1 3
-41z m2119 4 c7 -8 15 -29 16 -46 2 -32 2 -32 60 -32 56 0 57 0 57 28 0 60 12
63 297 69 242 6 259 5 273 -12 14 -17 13 -18 -3 -8 -25 13 -517 5 -534 -9 -7
-6 -13 -30 -13 -54 l0 -44 -78 0 -77 0 4 46 c2 36 0 45 -10 39 -9 -6 -11 -4
-6 8 6 15 -18 16 -256 16 -239 0 -265 -2 -294 -19 -26 -15 -33 -16 -33 -5 0 7
6 17 13 22 11 7 449 21 536 16 18 -1 40 -8 48 -15z m-97 -29 c8 -2 27 -15 42
-29 24 -22 29 -34 33 -95 2 -38 4 -115 4 -170 -1 -55 0 -139 1 -187 2 -86 1
-87 -33 -125 l-35 -38 -176 -5 c-97 -3 -176 -2 -176 3 0 4 -16 7 -34 7 -28 0
-40 7 -63 36 l-27 36 -2 237 c-2 232 5 302 29 318 19 13 392 22 437 12z m755
-5 c14 -9 29 -32 35 -53 13 -46 13 -367 0 -446 -15 -93 -32 -104 -171 -117
-126 -11 -276 -6 -307 11 -11 6 -25 25 -31 42 -12 36 -15 239 -3 239 8 0 52
-140 52 -168 0 -22 34 -57 49 -48 5 3 22 1 38 -5 48 -19 93 -27 99 -18 3 5 -5
9 -18 9 -35 0 -113 53 -142 97 -32 49 -56 116 -56 159 0 43 37 143 63 172 30
33 127 83 162 84 56 1 64 -2 129 -52 67 -50 84 -55 44 -13 -16 17 -19 26 -11
34 8 8 15 6 25 -10 13 -21 28 -28 28 -13 0 12 -39 52 -51 52 -6 0 -7 -4 -4
-10 9 -14 -42 -6 -90 15 -53 23 -122 13 -202 -30 -41 -22 -63 -29 -66 -22 -3
7 -5 3 -4 -8 0 -11 -11 -54 -24 -95 l-24 -75 -3 75 c-2 41 -1 94 3 116 11 74
12 74 190 83 254 13 264 12 290 -5z m-2440 -46 c94 -1 376 0 628 3 407 4 457
3 455 -11 -3 -13 -22 -14 -124 -11 -88 2 -124 0 -129 -9 -6 -9 -9 -9 -15 1 -7
10 -12 10 -23 1 -7 -7 -17 -9 -20 -6 -4 4 -50 5 -104 4 -488 -13 -949 -12
-993 2 l-35 11 28 12 c16 6 58 10 95 8 37 -2 144 -4 237 -5z m-1270 -47 c154
4 413 7 576 8 248 1 304 -2 340 -15 28 -10 73 -15 122 -14 43 0 76 -3 74 -7
-3 -5 34 -5 81 -1 48 4 179 7 292 8 113 0 355 3 538 6 293 6 332 5 332 -9 0
-16 -108 -24 -455 -32 -196 -5 -365 -12 -518 -21 -96 -5 -110 -4 -121 11 -7
10 -19 15 -27 12 -10 -4 -9 -6 4 -6 11 -1 17 -9 17 -27 0 -14 4 -23 8 -20 4 2
124 6 265 8 142 2 248 6 235 10 -13 3 31 6 97 6 66 -1 203 1 304 2 175 4 185
3 192 -16 4 -10 8 -14 8 -9 1 6 24 11 54 10 39 0 52 -4 52 -15 0 -12 -10 -14
-45 -12 -110 6 -300 9 -250 3 93 -10 26 -17 -200 -18 -125 -1 -200 2 -180 6
l35 8 -37 2 c-20 0 -38 -3 -40 -8 -2 -6 -112 -13 -251 -17 -136 -4 -245 -9
-243 -11 3 -3 248 -5 545 -5 462 1 541 -1 541 -13 0 -12 -14 -14 -77 -8 -53 4
-74 3 -70 -5 7 -9 -26 -12 -213 -14 -8 0 -51 2 -95 5 -48 3 -62 2 -35 -2 31
-5 4 -8 -89 -9 -127 -1 -150 -6 -151 -32 0 -3 66 -2 147 1 222 10 581 14 589
7 3 -4 3 -12 -1 -18 -5 -8 -23 -10 -57 -6 -30 4 -55 3 -62 -3 -7 -6 -73 -13
-147 -16 -74 -3 -174 -8 -224 -10 -49 -2 -129 -4 -176 -5 -70 0 -88 -3 -93
-16 -5 -14 11 -15 156 -10 513 18 608 19 608 2 0 -12 -10 -16 -35 -16 -18 0
-56 -4 -82 -9 -71 -14 -656 -24 -648 -11 3 5 1 10 -4 10 -6 0 -11 -4 -11 -9 0
-5 -3 -16 -6 -24 -5 -13 14 -15 133 -13 76 2 245 4 375 5 200 1 239 3 252 17
9 8 16 12 16 7 0 -4 3 -17 6 -28 5 -19 -1 -20 -218 -23 -123 -2 -245 -6 -273
-8 -57 -6 -253 -12 -462 -13 -138 -1 -143 -2 -143 -22 0 -19 4 -20 78 -15 42
3 192 8 332 11 140 3 296 8 346 11 50 4 148 3 218 -1 110 -6 126 -9 126 -24 0
-16 -7 -17 -67 -8 -46 6 -83 5 -113 -2 -26 -6 -220 -13 -455 -17 -225 -3 -413
-8 -417 -10 -4 -3 -17 0 -28 6 -16 8 -20 8 -20 -4 0 -8 -6 -17 -12 -20 -7 -3
127 -3 297 0 525 9 894 12 915 7 54 -14 1 -20 -196 -22 -119 0 -219 -3 -223
-5 -4 -3 -90 -8 -191 -11 -102 -4 -187 -9 -190 -10 -6 -4 -410 -8 -572 -6
-146 1 -145 26 2 41 42 4 9 6 -95 6 -172 -1 -232 9 -344 59 -53 24 -61 25
-151 15 -52 -5 -221 -16 -375 -25 -154 -8 -311 -19 -350 -23 l-69 -7 2 -88 c1
-48 5 -93 8 -99 5 -8 49 -9 143 -4 75 3 183 9 241 11 58 3 137 7 175 10 39 3
167 10 285 15 300 13 367 20 430 39 44 14 96 18 260 19 113 1 315 6 450 12
135 5 338 10 453 10 l207 0 -1 -22 c0 -13 -3 -17 -6 -10 -6 15 -131 16 -258 1
-49 -5 -175 -12 -280 -14 -104 -2 -253 -6 -330 -10 -77 -4 -194 -9 -260 -11
-66 -3 -142 -6 -168 -7 -27 -1 -54 1 -60 5 -6 3 -30 -9 -54 -27 -48 -37 -11
-32 -399 -55 -214 -13 -217 -13 -208 1 4 7 -3 6 -17 -2 -15 -8 -86 -15 -184
-20 -88 -4 -223 -10 -301 -14 l-141 -7 -16 41 c-19 48 -28 264 -12 280 6 5
114 14 240 20 127 6 259 13 295 16 36 2 129 5 208 6 l143 2 -19 21 c-11 12
-25 31 -31 44 l-12 23 -172 -5 c-95 -4 -228 -9 -297 -12 -169 -9 -341 -5 -356
7 -7 5 -14 61 -18 137 -8 138 1 182 36 182 10 0 18 5 18 11 0 7 5 8 13 2 7 -5
130 -6 292 -2z m3208 -541 c5 -19 14 -20 276 -20 232 0 272 2 277 15 4 8 12
15 20 15 21 0 17 -18 -6 -25 -11 -3 -20 -11 -20 -16 0 -13 -526 -12 -550 1
-11 6 -46 13 -80 17 -41 4 -60 10 -60 19 0 11 18 14 69 14 60 0 69 -2 74 -20z
m602 -123 c29 -51 32 -72 9 -81 -24 -9 -286 -16 -929 -22 -313 -3 -653 -10
-755 -14 -354 -16 -1021 -21 -1077 -9 l-52 12 19 26 c61 82 33 74 276 82 121
4 377 11 569 14 193 3 433 9 535 12 215 6 944 19 1202 21 l177 2 26 -43z m97
-897 c-4 -10 -24 -40 -45 -64 -57 -69 -82 -73 -472 -80 -418 -8 -796 -22
-1045 -41 -107 -8 -325 -14 -485 -15 -294 0 -514 -6 -661 -17 -72 -5 -87 -3
-128 18 l-47 23 -492 -13 c-577 -15 -665 -18 -812 -32 -189 -17 -477 -29 -805
-33 -331 -5 -431 3 -500 39 -35 18 -140 112 -140 125 0 4 132 10 292 15 161 4
329 8 373 10 373 17 611 25 915 30 151 3 372 10 490 15 118 6 341 11 495 13
279 2 280 2 313 -21 l33 -24 482 11 c265 6 577 14 692 18 116 3 352 7 525 8
450 2 972 16 990 26 26 15 40 11 32 -11z"/>
<path d="M3050 2303 c-232 -13 -686 -34 -829 -38 -95 -3 -177 -8 -182 -10 -4
-3 -8 -44 -8 -90 0 -119 1 -119 154 -112 323 17 619 28 631 23 8 -3 14 1 14
11 0 9 20 35 44 58 55 54 165 100 287 121 94 16 121 24 81 24 -11 0 -24 5 -27
10 -6 10 -40 10 -165 3z"/>
<path d="M3158 2183 c-56 -35 -41 -121 16 -95 14 6 30 21 37 34 9 19 9 21 -2
11 -17 -17 -46 -16 -52 1 -10 25 28 47 81 48 28 0 56 -3 61 -7 14 -8 -51 -75
-87 -91 -19 -9 -22 -13 -9 -13 22 -1 21 -10 -6 -42 -31 -37 -71 -61 -91 -53
-21 8 -21 42 1 66 14 16 15 18 0 18 -20 0 -47 -38 -47 -67 0 -28 33 -63 58
-63 24 0 88 64 113 113 11 20 27 37 35 37 10 0 14 6 11 14 -4 9 7 29 23 46 25
26 32 29 50 20 16 -9 20 -8 20 4 0 35 -163 49 -212 19z"/>
<path d="M310 2335 c-1 -5 -3 -26 -5 -45 -9 -108 -26 -274 -35 -335 -10 -66
-8 -80 24 -210 19 -77 38 -160 42 -185 4 -25 10 -49 14 -55 4 -5 11 -23 15
-40 l9 -30 5 35 c5 27 2 38 -11 48 -10 7 -16 17 -13 22 3 5 -13 82 -36 172
-23 90 -42 174 -42 188 0 58 37 346 46 358 5 6 27 12 48 12 l39 0 -5 -72 c-11
-186 -6 -446 10 -532 9 -48 15 -89 13 -90 -2 -1 -14 -7 -28 -13 l-25 -12 25 0
c54 -1 55 6 37 141 -18 130 -24 403 -8 394 5 -3 12 -63 15 -133 14 -293 19
-339 43 -385 16 -33 57 -62 75 -55 8 4 7 6 -4 6 -10 1 -30 20 -44 42 -23 38
-27 57 -35 183 -5 78 -15 203 -21 278 -6 75 -8 156 -5 180 3 24 3 35 0 26 -7
-28 -23 -21 -23 11 0 36 -15 49 -65 53 -32 2 -40 8 -46 28 -4 14 -8 21 -9 15z"/>
<path d="M1665 2299 c-49 -4 -147 -7 -217 -8 -232 -2 -265 -20 -249 -142 l8
-64 2 72 c1 68 3 73 32 93 33 24 55 26 350 34 112 2 165 0 187 -9 17 -8 33
-11 36 -9 3 2 4 1 2 -2 -2 -3 3 -22 11 -42 10 -24 15 -64 14 -112 -1 -41 4
-82 9 -90 8 -11 10 17 8 99 -2 76 -7 116 -15 118 -7 3 -10 10 -7 17 6 16 -42
57 -65 54 -9 0 -56 -4 -106 -9z"/>
<path d="M725 2269 c-4 -5 67 -7 180 -4 l186 6 28 -30 c31 -33 40 -81 47 -256
2 -49 5 -116 8 -148 6 -76 -8 -122 -48 -162 -36 -36 -93 -52 -198 -57 -32 -2
-58 -6 -58 -11 0 -9 130 0 203 14 103 19 110 35 112 232 1 261 -12 353 -59
405 -20 22 -24 23 -208 22 -103 -1 -190 -6 -193 -11z"/>
<path d="M986 2161 c33 -15 47 -31 68 -74 42 -85 44 -149 10 -243 -17 -48 -40
-89 -60 -110 -75 -74 -216 -65 -300 21 -48 49 -64 101 -64 203 0 61 4 74 30
110 17 23 30 46 30 52 0 21 -18 9 -45 -30 -23 -33 -28 -53 -32 -122 -6 -101 6
-150 52 -211 43 -57 55 -63 145 -82 100 -21 142 -10 200 52 50 54 90 157 90
228 0 105 -62 201 -140 219 -14 3 -6 -3 16 -13z"/>
<path d="M1216 1818 c5 -110 20 -159 52 -178 9 -5 13 -10 7 -10 -5 0 5 -7 23
-15 28 -12 52 -13 145 -4 62 6 157 12 212 14 121 2 142 7 175 40 22 23 25 34
27 113 2 66 0 81 -7 63 -6 -13 -7 -45 -4 -72 8 -58 -10 -92 -59 -112 -20 -9
-101 -16 -224 -21 -183 -7 -194 -6 -242 14 -27 12 -57 33 -66 47 -9 14 -23 70
-30 126 l-14 102 5 -107z"/>
<path d="M6098 1515 c-2 -3 -213 -7 -469 -10 -677 -8 -1349 -24 -1469 -35
-122 -12 -719 -8 -740 5 -8 5 -5 -3 6 -19 l19 -27 380 5 c209 3 560 9 780 14
220 5 621 12 890 15 526 7 755 15 775 27 29 18 -5 30 -84 30 -45 0 -85 -2 -88
-5z"/>
<path d="M4738 1231 c-107 -8 -118 -21 -104 -121 l8 -55 166 3 c92 2 168 5
171 8 2 2 -66 4 -152 3 -86 0 -161 2 -167 6 -5 3 -10 30 -10 60 0 42 4 55 18
59 20 6 212 9 387 5 97 -2 110 -4 65 -9 -52 -6 -53 -7 -13 -8 37 -2 42 -5 48
-32 11 -50 -1 -68 -48 -74 -88 -12 -90 -14 -12 -12 l80 1 3 83 3 82 -94 0
c-52 0 -134 2 -183 4 -49 2 -124 1 -166 -3z"/>
</g>
</svg>
